<?xml version="1.0" encoding="UTF-8"?>
<svg xmlns="http://www.w3.org/2000/svg" id="Layer_2" viewBox="0 0 475.3 444.07"><defs><style>.cls-1{fill:#fdcb37;}.cls-1,.cls-2,.cls-3,.cls-4{stroke-width:0px;}.cls-2{fill:#313d51;}.cls-3{fill:#049899;}.cls-4{fill:#3c63ab;}</style></defs><g id="Layer_1-2"><path class="cls-2" d="m275.5,307.95c-1.69-3.97-4.14-7.61-7.37-10.92-3.53-3.11-7.3-5.57-11.25-7.28-3.99-1.75-8.42-2.63-13.14-2.63s-9.17.88-13.2,2.63c-3.99,1.71-7.78,4.17-11.4,7.37-3.14,3.22-5.59,6.86-7.28,10.83-1.71,3.99-2.57,8.42-2.57,13.14v58.03l1.78-.15c3.33-.26,6.23-1.73,8.55-4.32,1.23-1.32,2.21-2.81,2.96-4.41.77-1.69,1.16-3.62,1.16-5.75v-9.3h19.87c9.1,0,17.37-3.29,24.58-9.87,3.16-3.16,5.61-6.82,7.32-10.94,1.69-4.1,2.57-8.57,2.57-13.29.01-4.72-.87-9.13-2.58-13.14Zm-17.96,27.69c-1.91,1.97-4.03,3.47-6.36,4.43-2.32.99-4.82,1.49-7.43,1.49h-20v-20.48c0-2.37.55-4.8,1.6-7.24,1.05-2.48,2.59-4.78,4.5-6.84,3.75-3.97,8.29-5.9,13.9-5.9,5.31,0,9.82,1.93,13.77,5.88,1.93,2.08,3.47,4.36,4.58,6.78,1.07,2.35,1.64,4.8,1.64,7.32s-.57,5.02-1.64,7.41c-1.12,2.46-2.67,4.9-4.56,7.15Z"/><path class="cls-2" d="m310.3,267.12c0,2.61-.9,4.82-2.63,6.56-1.73,1.8-3.93,2.7-6.49,2.7s-4.91-.9-6.67-2.72c-1.71-1.73-2.59-3.95-2.59-6.53s.86-4.8,2.57-6.6c1.78-1.84,4.01-2.79,6.69-2.79s4.76.94,6.51,2.76c1.74,1.81,2.61,4.03,2.61,6.62Z"/><path class="cls-2" d="m443.28,262.38c-1.8.09-3.38.48-4.74,1.21-1.25.66-2.43,1.56-3.6,2.72-2.76,2.76-4.17,6.21-4.17,10.2v65.04h-49.6c.24-1.58.72-3.16,1.49-4.78,1.03-2.21,2.39-4.21,4.03-5.92,1.64-1.73,3.49-3.14,5.59-4.28,1.97-1.05,4.01-1.58,6.12-1.58.81,0,1.56.04,2.17.11.66.07,1.25.22,1.8.4l1.91.66.26-2c.11-.7.15-1.34.15-1.89v-1.43c0-1.12-.09-2.35-.26-3.68-.18-1.21-.37-2.39-.61-3.55-1.34-6.14-4.41-11.64-9.12-16.38-3.14-3.14-6.84-5.61-10.99-7.37-4.17-1.73-8.66-2.63-13.36-2.63h-13.93c-4.78,0-9.3.9-13.42,2.63-4.12,1.75-7.83,4.23-11.03,7.37-2.19,2.19-4.06,4.71-5.55,7.52-1.45,2.76-2.61,5.77-3.46,8.97-.24,1.14-.44,2.21-.64,3.49-.15,1.18-.22,2.41-.22,3.64v1.43c0,.55.02,1.18.11,1.89l.29,2.08,1.95-.77c.61-.24,1.21-.37,1.67-.42.59-.04,1.36-.07,2.26-.07,2.08,0,4.14.53,6.1,1.58,2.11,1.14,3.93,2.52,5.55,4.25,1.6,1.73,2.94,3.73,3.99,5.92.72,1.62,1.25,3.22,1.51,4.8h-37.85v-54.65l-1.84.22c-1.71.2-3.27.68-4.65,1.45-1.29.72-2.52,1.64-3.82,2.83-2.61,2.61-3.93,6.03-3.93,10.2v77.43l1.71-.07c1.82-.07,3.44-.5,4.8-1.27,1.29-.7,2.61-1.78,3.79-3.14,1.25-1.25,2.21-2.7,2.89-4.32.68-1.64,1.03-3.57,1.03-5.75v-9.3h137.3v-92.87l-1.68.08Zm-84.14,79.16c-.29-2.43-.88-4.98-1.8-7.57-1.12-3.14-2.65-6.16-4.58-8.99s-4.3-5.44-7.02-7.74c-2.32-1.89-4.87-3.42-7.59-4.56.39-.72.83-1.45,1.32-2.19.81-1.18,1.73-2.3,2.7-3.33,4.01-4.08,8.66-6.07,14.28-6.07h13.93c2.57,0,5.09.55,7.46,1.6,2.41,1.05,4.71,2.59,6.8,4.45.81.86,1.64,1.93,2.61,3.33.53.79.99,1.53,1.38,2.24-2.72,1.14-5.26,2.7-7.57,4.63-2.7,2.3-5.07,4.91-7.06,7.76-1.97,2.85-3.53,5.88-4.65,8.99-.92,2.57-1.49,5.07-1.71,7.46h-8.5Z"/><path class="cls-2" d="m474.49,276.5v78.84l-1.78-.15c-3.33-.26-6.21-1.6-8.53-3.93-1.27-1.36-2.28-2.87-3-4.54-.77-1.71-1.16-3.62-1.16-5.66v-78.81l1.78.13c3.31.26,6.18,1.6,8.53,3.92,1.25,1.25,2.26,2.76,3,4.5.76,1.75,1.16,3.66,1.16,5.7Z"/><path class="cls-2" d="m141.5,426.38h8.05v4.32h-21.76c-3.91,0-7.15-1.29-9.74-3.88-1.29-1.26-2.28-2.71-2.96-4.35-.68-1.64-1.02-3.4-1.02-5.29s.34-3.63,1.02-5.22c.68-1.59,1.66-3.03,2.96-4.32,1.29-1.26,2.75-2.24,4.37-2.93,1.62-.7,3.41-1.04,5.37-1.04s3.68.35,5.29,1.04c1.61.7,3.04,1.67,4.3,2.93,1.32,1.33,2.34,2.78,3.06,4.37.71,1.59,1.07,3.31,1.07,5.17v9.2h0Zm-4.82,0v-9.19c0-2.38-.88-4.5-2.63-6.36-1.82-1.82-3.92-2.73-6.31-2.73-1.19,0-2.33.22-3.43.67-1.09.45-2.09,1.14-2.98,2.06-1.76,1.86-2.63,3.97-2.63,6.36s.88,4.52,2.63,6.51c1.79,1.79,3.92,2.68,6.41,2.68h8.94Zm-17.14-31.9c0-.93.3-1.69.89-2.29.6-.6,1.34-.89,2.24-.89.99,0,1.81.3,2.43.89.63.6.94,1.36.94,2.29s-.32,1.66-.94,2.29c-.63.63-1.44.94-2.43.94-.89,0-1.64-.31-2.24-.94s-.89-1.39-.89-2.29Zm9.59,0c0-.93.31-1.69.92-2.29s1.37-.89,2.26-.89,1.66.3,2.29.89c.63.6.94,1.36.94,2.29s-.32,1.66-.94,2.29c-.63.63-1.39.94-2.29.94s-1.65-.31-2.26-.94c-.61-.63-.92-1.39-.92-2.29Z"/><path class="cls-2" d="m148.95,426.38h8.4v-18.28c0-.76.14-1.46.42-2.09.28-.63.65-1.18,1.12-1.64.46-.53.94-.94,1.42-1.22.48-.28,1.02-.44,1.61-.47v23.7h8.65v4.32h-21.61v-4.32h-.01Zm2.64,14.46c0-.96.31-1.76.92-2.38.61-.63,1.37-.94,2.26-.94s1.65.31,2.26.94.92,1.42.92,2.38c0,.89-.31,1.66-.92,2.29s-1.37.94-2.26.94-1.65-.32-2.26-.94c-.62-.64-.92-1.4-.92-2.29Zm9.49,0c0-.96.31-1.76.92-2.38.61-.63,1.37-.94,2.26-.94s1.65.31,2.26.94.92,1.42.92,2.38c0,.89-.31,1.66-.92,2.29s-1.37.94-2.26.94-1.65-.32-2.26-.94c-.62-.64-.92-1.4-.92-2.29Z"/><path class="cls-2" d="m175.44,426.38v-9.19c0-3.74,1.31-6.92,3.92-9.54,1.39-1.26,2.88-2.24,4.47-2.93,1.59-.7,3.35-1.04,5.27-1.04s3.73.35,5.32,1.04c1.59.7,3.08,1.67,4.47,2.93,1.26,1.29,2.23,2.73,2.91,4.32s1.02,3.33,1.02,5.22c0,1.49-.3,3.01-.89,4.57-.6,1.56-1.46,3.1-2.58,4.62h9.09v4.32h-37.91v-4.32h4.91Zm4.57,0h9.09c2.52,0,4.62-.89,6.31-2.68,1.79-2.02,2.68-4.19,2.68-6.51s-.89-4.47-2.68-6.36c-1.72-1.82-3.83-2.73-6.31-2.73s-4.54.91-6.26,2.73c-.86.89-1.55,1.89-2.06,2.98-.51,1.09-.77,2.22-.77,3.38v9.19Z"/><path class="cls-2" d="m207.93,426.38h8.45v-18.28c0-1.49.5-2.73,1.49-3.73.46-.53.93-.94,1.39-1.22.46-.28,1.03-.44,1.69-.47v23.7h6.46v4.32h-19.48v-4.32Zm7.85-31.9c0-.93.3-1.69.89-2.29.6-.6,1.34-.89,2.24-.89s1.7.3,2.31.89c.61.6.92,1.36.92,2.29s-.31,1.66-.92,2.29-1.38.94-2.31.94-1.64-.31-2.24-.94-.89-1.39-.89-2.29Z"/><path class="cls-2" d="m227.41,426.38h10.43v-18.28c0-1.49.5-2.73,1.49-3.73.46-.53.93-.94,1.39-1.22.46-.28,1.03-.44,1.69-.47v23.7h9.94v4.32h-24.94v-4.32Zm4.17-31.9c0-.93.31-1.69.92-2.29s1.37-.89,2.26-.89,1.66.3,2.29.89c.63.6.94,1.36.94,2.29s-.31,1.66-.94,2.29-1.39.94-2.29.94-1.65-.31-2.26-.94c-.61-.63-.92-1.39-.92-2.29Zm9.49,0c0-.93.3-1.69.89-2.29.6-.6,1.36-.89,2.29-.89s1.66.3,2.29.89c.63.6.94,1.36.94,2.29s-.31,1.66-.94,2.29-1.39.94-2.29.94-1.69-.31-2.29-.94-.89-1.39-.89-2.29Z"/><path class="cls-2" d="m250.91,426.38h8.84v-27.87c0-1.49.51-2.75,1.54-3.78.43-.43.88-.77,1.34-1.02s1.03-.39,1.69-.42v37.41h-13.42v-4.32h0Z"/><path class="cls-2" d="m276.65,430.7c-1.23-.1-2.27-.58-3.13-1.44-.46-.5-.84-1.06-1.12-1.69-.28-.63-.42-1.33-.42-2.09v-32.2c1.22.1,2.27.58,3.13,1.44.46.46.84,1.02,1.12,1.66.28.65.42,1.35.42,2.11v32.21Z"/><path class="cls-2" d="m305.51,430.7h-9.04c-3.64,0-6.91-1.31-9.79-3.92-1.26-1.23-2.23-2.66-2.91-4.3s-1.02-3.42-1.02-5.34.34-3.63,1.02-5.22,1.65-3.03,2.91-4.32c1.42-1.26,2.93-2.24,4.52-2.93s3.33-1.04,5.22-1.04,3.63.35,5.24,1.04,3.12,1.67,4.55,2.93c1.26,1.29,2.23,2.73,2.91,4.32s1.02,3.33,1.02,5.22v23.6c-.63-.07-1.19-.23-1.69-.5s-.98-.65-1.44-1.14c-.46-.5-.83-1.04-1.09-1.64-.27-.6-.4-1.29-.4-2.09v-4.67h0Zm0-4.32v-9.24c0-1.16-.25-2.29-.75-3.38s-1.18-2.09-2.04-2.98-1.83-1.57-2.91-2.04c-1.08-.46-2.21-.7-3.4-.7s-2.28.23-3.35.7-2.04,1.14-2.91,2.04-1.53,1.89-2.01,2.98c-.48,1.09-.72,2.22-.72,3.38,0,1.23.24,2.37.72,3.43s1.15,2.09,2.01,3.08c1.82,1.82,3.91,2.73,6.26,2.73h9.1Z"/><path class="cls-2" d="m348.89,430.7h-13.71c-3.78,0-7.02-1.29-9.74-3.88-1.29-1.26-2.28-2.71-2.96-4.35s-1.02-3.4-1.02-5.29.34-3.63,1.02-5.22,1.67-3.03,2.96-4.32c1.39-1.26,2.88-2.24,4.47-2.93,1.59-.7,3.34-1.04,5.27-1.04s3.68.35,5.27,1.04,3.08,1.67,4.47,2.93c2.65,2.65,3.97,5.83,3.97,9.54v13.52h0Zm-4.72-4.32v-9.19c0-1.16-.24-2.29-.72-3.38s-1.15-2.09-2.01-2.98-1.83-1.57-2.91-2.04c-1.08-.46-2.21-.7-3.4-.7s-2.27.23-3.33.7c-1.06.46-2.02,1.14-2.88,2.04s-1.53,1.89-2.01,2.98c-.48,1.09-.72,2.22-.72,3.38s.24,2.29.72,3.4c.48,1.11,1.13,2.15,1.96,3.11.86.89,1.82,1.57,2.88,2.01,1.06.45,2.19.67,3.38.67h9.04Zm-16.99-31.9c0-.93.31-1.69.92-2.29s1.37-.89,2.26-.89,1.66.3,2.29.89c.63.6.94,1.36.94,2.29s-.31,1.66-.94,2.29-1.39.94-2.29.94-1.65-.31-2.26-.94-.92-1.39-.92-2.29Zm9.49,0c0-.93.31-1.69.92-2.29s1.37-.89,2.26-.89,1.66.3,2.29.89c.63.6.94,1.36.94,2.29s-.32,1.66-.94,2.29-1.39.94-2.29.94-1.65-.31-2.26-.94c-.62-.63-.92-1.39-.92-2.29Z"/><path class="cls-2" d="m366.68,408.39c-.76,0-1.46-.13-2.09-.4-.63-.26-1.23-.63-1.79-1.09-.46-.46-.82-.94-1.07-1.42s-.39-1.08-.42-1.81h13.42c1.89,0,3.66.36,5.32,1.07,1.66.71,3.11,1.7,4.37,2.96,2.58,2.58,3.88,5.78,3.88,9.59,0,1.92-.32,3.71-.97,5.37-.65,1.66-1.62,3.11-2.91,4.37-1.29,1.33-2.73,2.27-4.32,2.83s-3.38.84-5.37.84h-17.5c.13-1.03.63-1.97,1.49-2.83.99-.99,2.24-1.49,3.73-1.49h12.27c1.16,0,2.28-.22,3.35-.67,1.08-.45,2.09-1.1,3.06-1.96,1.92-1.89,2.88-4.04,2.88-6.46,0-1.19-.24-2.32-.72-3.38s-1.2-2.02-2.16-2.88c-.96-.86-1.98-1.51-3.06-1.96s-2.2-.67-3.35-.67h-8.04Z"/><path class="cls-2" d="m409.06,430.7h-11.88v-37.41c1.19.1,2.22.58,3.08,1.44.99.96,1.49,2.22,1.49,3.78v27.87h7.3v4.32h.01Z"/><path class="cls-2" d="m422.62,409.09c0-1.56.48-2.81,1.44-3.78.43-.43.91-.79,1.44-1.07s1.14-.46,1.84-.52v13.51c0,1.89-.36,3.65-1.07,5.29-.71,1.64-1.73,3.09-3.06,4.35-2.55,2.55-5.75,3.83-9.59,3.83h-5.81v-4.32h5.81c2.45,0,4.55-.88,6.31-2.63.96-1.06,1.65-2.11,2.06-3.16.41-1.04.62-2.16.62-3.35v-8.15h.01Zm-11.13,31.75c0-.96.3-1.76.89-2.38.6-.63,1.34-.94,2.24-.94s1.69.31,2.29.94.89,1.42.89,2.38c0,.89-.3,1.66-.89,2.29-.6.63-1.36.94-2.29.94s-1.64-.32-2.24-.94c-.59-.64-.89-1.4-.89-2.29Zm9.49,0c0-.96.3-1.76.89-2.38.6-.63,1.34-.94,2.24-.94s1.71.31,2.36.94c.65.63.97,1.42.97,2.38,0,.89-.32,1.66-.97,2.29-.65.63-1.43.94-2.36.94s-1.64-.32-2.24-.94-.89-1.4-.89-2.29Z"/><path class="cls-2" d="m436.58,408.99c0-1.56.48-2.81,1.44-3.78.46-.43.94-.79,1.44-1.07s1.06-.46,1.69-.52v22.76h4.02v4.32h-4.02v4.57c0,.83-.12,1.54-.37,2.14-.25.6-.6,1.13-1.07,1.59-.46.53-.94.93-1.42,1.19s-1.05.41-1.71.45v-31.65Z"/><path class="cls-2" d="m443.79,426.38h8.45v-27.87c0-1.49.5-2.73,1.49-3.73.46-.46.93-.82,1.39-1.07s1.03-.39,1.69-.42v33.09h6.46v4.32h-19.48v-4.32h0Z"/><path class="cls-2" d="m461.82,426.38h8.84v-27.87c0-1.49.51-2.75,1.54-3.78.43-.43.88-.77,1.34-1.02s1.03-.39,1.69-.42v37.41h-13.42v-4.32h0Z"/><path class="cls-3" d="m182.23,333.22v13.77c0,2.67-2.37,4.73-5.02,4.34l-11.07-1.63-13.47-1.98c-3.28-.48-4.86-4.29-2.88-6.95l8.13-10.92,6.68-8.97c1.6-2.14,4.72-2.37,6.61-.48l9.73,9.73c.83.81,1.29,1.93,1.29,3.09Z"/><path class="cls-1" d="m114.76,329.53l-71.31-10.49-16.09,11.85c-1.9,1.4-4.21,2.16-6.57,2.16h-9.71c-6.12,0-11.08-4.96-11.08-11.08v-18.12s0-18.12,0-18.12c0-6.12,4.96-11.08,11.08-11.08h9.71c2.36,0,4.67.76,6.57,2.16l16.09,11.85,71.34-10.47c3.56-.52,7.12.95,9.27,3.84h0c9.63,12.95,9.62,30.68,0,43.63l-.02.02c-2.16,2.9-5.72,4.38-9.28,3.85Z"/><path class="cls-1" d="m281.63,177.46l-.03.03c-16.92,12.58-40.09,12.58-57.01,0h0c-5.56-4.14-8.41-10.99-7.4-17.85l14.42-98.13-17.29-23.4c-1.68-2.28-2.59-5.03-2.59-7.86V13.23c0-7.31,5.92-13.23,13.23-13.23h56.26c7.31,0,13.23,5.92,13.23,13.23v17.03c0,2.82-.9,5.57-2.58,7.85l-17.27,23.44,14.42,98.07c1.02,6.84-1.82,13.7-7.39,17.84Z"/><path class="cls-3" d="m185.16,280.08l-13.08,13.08c-1.89,1.89-5.02,1.66-6.62-.48l-8.9-11.96-10.98-14.77c-1.98-2.66-.4-6.47,2.88-6.95l18.21-2.67,14.75-2.16c2.65-.39,5.02,1.66,5.02,4.34v18.48c0,1.15-.46,2.26-1.28,3.09Z"/><path class="cls-3" d="m225.15,241.44h-23.25c-2.67,0-4.73-2.37-4.34-5.02l2.71-18.45,3.38-22.98c.48-3.28,4.29-4.86,6.95-2.88l18.63,13.87,14.95,11.14c2.14,1.6,2.37,4.72.48,6.61l-16.42,16.42c-.81.83-1.92,1.29-3.09,1.29Z"/><path class="cls-3" d="m281.94,233.55l-12.96-12.96c-1.89-1.89-1.66-5.02.48-6.62l11.85-8.81,14.62-10.87c2.66-1.98,6.47-.4,6.95,2.88l2.64,18.03,2.14,14.61c.39,2.65-1.66,5.02-4.34,5.02h-18.3c-1.15,0-2.26-.46-3.08-1.28Z"/><path class="cls-4" d="m187.42,159.07l-58.64-43.56c-1.53-1.14-2.55-2.84-2.84-4.73l-2.97-19.68c-.5-3.29,1.31-6.49,4.38-7.76l60.4-25.02c3.07-1.27,6.61-.29,8.59,2.38l11.84,16.01c1.14,1.54,1.62,3.46,1.34,5.35l-10.62,72.25c-.8,5.42-7.09,8.02-11.48,4.76Z"/><path class="cls-4" d="m369.07,113.74l-44.01,32.73c-4.39,3.27-10.68.66-11.48-4.75l-7.97-54.27c-.28-1.89.2-3.81,1.34-5.35l8.29-11.22c1.97-2.67,5.52-3.66,8.59-2.39l45.76,18.96c3.07,1.27,4.88,4.47,4.39,7.75l-2.06,13.8c-.29,1.89-1.31,3.6-2.85,4.74Z"/><path class="cls-4" d="m98.33,248.85l-55.41,8.13c-1.88.28-3.8-.2-5.33-1.33l-11.59-8.51c-2.68-1.97-3.67-5.52-2.4-8.6l19.33-46.73c1.27-3.07,4.48-4.88,7.77-4.39l14.23,2.15c1.89.29,3.59,1.3,4.72,2.84l33.43,44.96c3.27,4.39.66,10.68-4.75,11.48Z"/><path class="cls-4" d="m83.92,402.98l-9.52,1.44c-3.29.5-6.49-1.31-7.77-4.39l-14.45-34.91c-1.27-3.07-.29-6.61,2.39-8.58l7.73-5.71c1.54-1.14,3.46-1.62,5.36-1.34l40.9,6.05c5.41.8,8.01,7.09,4.75,11.48l-24.66,33.14c-1.14,1.52-2.84,2.54-4.73,2.82Z"/><path class="cls-4" d="m442.51,182.77l9.77-1.48c3.29-.5,6.49,1.31,7.77,4.39l14.7,35.54c1.27,3.07.29,6.61-2.39,8.58l-7.93,5.86c-1.54,1.14-3.47,1.62-5.36,1.34l-41.66-6.16c-5.41-.8-8.01-7.09-4.75-11.48l25.12-33.76c1.14-1.53,2.84-2.54,4.73-2.83Z"/><path class="cls-1" d="m183.94,196.28v-.05c.79-5.32-1.41-10.64-5.72-13.85l-71.91-53.47-3.82-25.54c-.38-2.53-1.56-4.87-3.37-6.68l-10.57-10.57c-4.67-4.67-12.23-4.67-16.9,0l-35.22,35.22c-4.67,4.67-4.67,12.23,0,16.9l10.57,10.57c1.81,1.81,4.15,2.99,6.68,3.37l25.55,3.82,53.49,71.94c3.21,4.31,8.53,6.52,13.85,5.73h0c19.34-2.86,34.53-18.05,37.37-37.39Z"/><path class="cls-1" d="m323.44,196.28v-.05c-.79-5.32,1.41-10.64,5.72-13.85l71.91-53.47,3.82-25.55c.38-2.53,1.56-4.87,3.37-6.68l10.57-10.57c4.67-4.67,12.23-4.67,16.9,0l35.22,35.22c4.67,4.67,4.67,12.23,0,16.9l-10.57,10.57c-1.81,1.81-4.15,2.99-6.68,3.37l-25.55,3.82-53.49,71.94c-3.21,4.31-8.53,6.52-13.85,5.73h0c-19.34-2.85-34.52-18.04-37.37-37.38Z"/></g></svg>
